<?xml version="1.0" standalone="no"?>
<!DOCTYPE svg PUBLIC "-//W3C//DTD SVG 20010904//EN"
 "http://www.w3.org/TR/2001/REC-SVG-20010904/DTD/svg10.dtd">
<svg version="1.0" xmlns="http://www.w3.org/2000/svg"
 width="512.000000pt" height="512.000000pt" viewBox="0 0 512.000000 512.000000"
 preserveAspectRatio="xMidYMid meet">

<g transform="translate(0.000000,512.000000) scale(0.100000,-0.100000)"
fill="#000000" stroke="none">
<path d="M2870 5109 c-268 -30 -538 -140 -760 -310 -106 -82 -187 -160 -200
-194 -29 -75 -98 0 1293 -1393 1003 -1003 1300 -1294 1326 -1302 60 -16 90 -2
166 77 102 109 187 231 260 378 72 145 106 241 135 386 75 377 0 757 -214
1079 -71 106 -184 233 -227 255 -44 23 -91 19 -135 -14 -21 -15 -151 -126
-288 -246 l-248 -218 -185 185 -186 186 229 262 c126 144 237 274 246 289 21
31 23 82 4 119 -17 33 -109 122 -191 183 -290 219 -659 319 -1025 278z"/>
<path d="M2205 3681 c-40 -24 -697 -728 -687 -735 9 -5 1949 -915 1969 -923
16 -6 188 160 203 197 7 18 10 45 5 67 -6 34 -83 115 -678 712 -388 389 -686
679 -704 687 -43 19 -72 18 -108 -5z"/>
<path d="M1105 2514 c-121 -130 -221 -239 -223 -243 -1 -4 428 -209 953 -455
850 -398 958 -446 975 -434 49 35 478 444 472 450 -5 5 -1899 894 -1947 914
-6 3 -110 -102 -230 -232z"/>
<path d="M465 1827 l-224 -242 35 -18 c85 -44 1807 -847 1815 -847 5 0 120
102 255 227 l245 228 -98 47 c-54 26 -482 227 -951 446 l-852 400 -225 -241z"/>
<path d="M33 1358 c-27 -30 -37 -80 -24 -121 8 -22 189 -210 608 -629 650
-649 626 -628 704 -595 47 19 573 509 557 518 -37 19 -1815 849 -1819 849 -3
0 -15 -10 -26 -22z"/>
</g>
</svg>
